{"title":"Naked Bar Sports (1995) Vhs","uid":12039360,"size":908566215,"categoryP":"video","categoryS":"movies","magnet":"?xt=urn:btih:5f8f897bc8bfe70191151e650c9e52352aadc683&amp;dn=Naked+Bar+Sports+%281995%29+Vhs&amp;tr=udp%3A%2F%2Ftracker.openbittorrent.com%3A80&amp;tr=udp%3A%2F%2Fopen.demonii.com%3A1337&amp;tr=udp%3A%2F%2Ftracker.coppersurfer.tk%3A6969&amp;tr=udp%3A%2F%2Fexodus.desync.com%3A6969","seeders":0,"leechers":0,"uploader":"AW-","files":1,"time":1434739588,"description":"Naked Bar Sports (1995) Vhs\n &lt;a href=&quot;\nhttp://postimg.org/image/oi9qrf4v7/&quot; rel=&quot;nofollow&quot; target=&quot;_NEW&quot;&gt;\nhttp://postimg.org/image/oi9qrf4v7/&lt;/a&gt;\n &lt;a href=&quot;\nhttp://postimg.org/image/6thzzst43/&quot; rel=&quot;nofollow&quot; target=&quot;_NEW&quot;&gt;\nhttp://postimg.org/image/6thzzst43/&lt;/a&gt;\n\nSit back and watch California's most gorgeous girls flex their muscles in heated \ncompetitions that will give you a whole new outlook on sports.\nThese girls bare all while playing pool and arm wrestling... as they experience the thrill of victory, the agony of defeat and ALL that comes between...\n\n\nRick Zumwalt as a Referee http://www.imdb.com/media/rm4166829824/nm0958658?ref_=nm_phs_md_1\n &lt;a href=&quot;\nhttp://postimg.org/image/j9eptjmg3/&quot; rel=&quot;nofollow&quot; target=&quot;_NEW&quot;&gt;\nhttp://postimg.org/image/j9eptjmg3/&lt;/a&gt;\n &lt;a href=&quot;\nhttp://postimg.org/image/wrlm5tylf/&quot; rel=&quot;nofollow&quot; target=&quot;_NEW&quot;&gt;\nhttp://postimg.org/image/wrlm5tylf/&lt;/a&gt;\n &lt;a href=&quot;\nhttp://postimg.org/image/6ahi49r37/&quot; rel=&quot;nofollow&quot; target=&quot;_NEW&quot;&gt;\nhttp://postimg.org/image/6ahi49r37/&lt;/a&gt;\n &lt;a href=&quot;\nhttp://postimg.org/image/71a8a1tgj/&quot; rel=&quot;nofollow&quot; target=&quot;_NEW&quot;&gt;\nhttp://postimg.org/image/71a8a1tgj/&lt;/a&gt;\n &lt;a href=&quot;\nhttp://postimg.org/image/pi4n0v9er/&quot; rel=&quot;nofollow&quot; target=&quot;_NEW&quot;&gt;\nhttp://postimg.org/image/pi4n0v9er/&lt;/a&gt;\n &lt;a href=&quot;\nhttp://postimg.org/image/i3jwm8cwz/&quot; rel=&quot;nofollow&quot; target=&quot;_NEW&quot;&gt;\nhttp://postimg.org/image/i3jwm8cwz/&lt;/a&gt;\n &lt;a href=&quot;\nhttp://postimg.org/image/d66c14axv/&quot; rel=&quot;nofollow&quot; target=&quot;_NEW&quot;&gt;\nhttp://postimg.org/image/d66c14axv/&lt;/a&gt;\n &lt;a href=&quot;\nhttp://postimg.org/image/p9bnoom03/&quot; rel=&quot;nofollow&quot; target=&quot;_NEW&quot;&gt;\nhttp://postimg.org/image/p9bnoom03/&lt;/a&gt;\n\nGeneral\nComplete name:Naked Bar Sports (1995)_Vhs.mkv\nFormat                                   : Matroska\nFormat version                           : Version 2\nFile size                                : 866 MiB\nDuration                                 : 1h 0mn\nOverall bit rate                         : 1 995 Kbps\n\nVideo\nFormat                                   : AVC\nFormat/Info                              : Advanced Video Codec\nFormat profile                           : &lt;a class=&quot;__cf_email__&quot; href=&quot;/cdn-cgi/l/email-protection&quot; data-cfemail=&quot;ce86a7a9a68e82fde0ff&quot;&gt;[email&amp;#160;protected]&lt;/a&gt;&lt;script data-cfhash='f9e31' type=&quot;text/javascript&quot;&gt;\n/* &lt;![CDATA[ */!function(){try{var t=&quot;currentScript&quot;in document?document.currentScript:function(){for(var t=document.getElementsByTagName(&quot;script&quot;),e=t.length;e--;)if(t[e].getAttribute(&quot;data-cfhash&quot;))return t[e]}();if(t&amp;&amp;t.previousSibling){var e,r,n,i,c=t.previousSibling,a=c.getAttribute(&quot;data-cfemail&quot;);if(a){for(e=&quot;&quot;,r=parseInt(a.substr(0,2),16),n=2;a.length-n;n+=2)i=parseInt(a.substr(n,2),16)^r,e+=String.fromCharCode(i);e=document.createTextNode(e),c.parentNode.replaceChild(e,c)}t.parentNode.removeChild(t);}}catch(u){}}()/* ]]&gt; */&lt;/script&gt;\nDuration                                 : 1h 0mn\nBit rate                                 : 1 800 Kbps\nWidth                                    : 640 pixels\nHeight                                   : 480 pixels\nDisplay aspect ratio                     : 4.3\nFrame rate mode                          : Constant\nFrame rate                               : 23.976 fps\nBits/(Pixel*Frame)                       : 0.244\nStream size                              : 766 MiB (88%)\nWriting library                          : x264 core 146 r2538 121396c\n\nAudio\nFormat                                   : AC-3\nBit rate mode                            : Constant\nBit rate                                 : 192 Kbps\nChannel(s)                               : 2 channels\nChannel positions                        : Front: L R\nSampling rate                            : 48.0 KHz\nCompression mode                         : Lossy\nStream size                              : 83.4 MiB (10%)\nLanguage                                 : English\n\n\n\nNOTES: This Vhs tape has suffered some Video/Audio tape rot.\nThe audio was bad with a lot of mosquito type distortion,\nI've heard a lot worse though.\nI had removed a small amount of the noise with audacity.\nI have two VHS tapes of this and this was the better of the two.\nIt's only 20 years old...lol\n\nPlease seed, thanks o/","torrent":{"xt":"urn:btih:5f8f897bc8bfe70191151e650c9e52352aadc683","amp;dn":"Naked+Bar+Sports+%281995%29+Vhs","amp;tr":["udp%3A%2F%2Ftracker.openbittorrent.com%3A80","udp%3A%2F%2Fopen.demonii.com%3A1337","udp%3A%2F%2Ftracker.coppersurfer.tk%3A6969","udp%3A%2F%2Fexodus.desync.com%3A6969"],"infoHash":"5f8f897bc8bfe70191151e650c9e52352aadc683","infoHashBuffer":{"type":"Buffer","data":[95,143,137,123,200,191,231,1,145,21,30,101,12,158,82,53,42,173,198,131]},"announce":[],"urlList":[]}}